<svg width="107" height="77" viewBox="0 0 107 77" fill="none" xmlns="http://www.w3.org/2000/svg">
<path d="M105.701 1.46435C106.565 2.36793 107.032 3.57477 106.998 4.81943C106.965 6.06408 106.434 7.24462 105.523 8.10139L33.5591 75.7113C33.1053 76.1381 32.5708 76.4715 31.9864 76.6924C31.402 76.9132 30.7792 77.017 30.1541 76.9977C29.529 76.9785 28.914 76.8367 28.3445 76.5804C27.775 76.3242 27.2623 75.9586 26.8361 75.5047L1.2698 48.2729C0.413939 47.3614 -0.0417394 46.1501 0.00301025 44.9054C0.025168 44.2891 0.169517 43.6832 0.427815 43.1222C0.686114 42.5612 1.0533 42.0562 1.50842 41.6359C1.96353 41.2156 2.49766 40.8884 3.08031 40.6728C3.66295 40.4573 4.28271 40.3577 4.90418 40.3796C6.1593 40.424 7.34524 40.961 8.2011 41.8725L30.51 65.6374L99.0087 1.28781C99.9199 0.431192 101.137 -0.0314443 102.392 0.00166197C103.647 0.0347683 104.837 0.560905 105.701 1.46435Z" fill="#2652CF"/>
</svg>
