<svg width="42" height="34" viewBox="0 0 42 34" fill="none" xmlns="http://www.w3.org/2000/svg">
<path d="M35.4167 0H6.25C4.5924 0 3.00269 0.65848 1.83058 1.83058C0.65848 3.00269 0 4.5924 0 6.25V27.0833C0 28.7409 0.65848 30.3306 1.83058 31.5028C3.00269 32.6749 4.5924 33.3333 6.25 33.3333H35.4167C37.0743 33.3333 38.664 32.6749 39.8361 31.5028C41.0082 30.3306 41.6667 28.7409 41.6667 27.0833V6.25C41.6667 4.5924 41.0082 3.00269 39.8361 1.83058C38.664 0.65848 37.0743 0 35.4167 0ZM34.0208 4.16667L20.8333 14.0625L7.64583 4.16667H34.0208ZM35.4167 29.1667H6.25C5.69747 29.1667 5.16756 28.9472 4.77686 28.5565C4.38616 28.1658 4.16667 27.6359 4.16667 27.0833V6.77083L19.5833 18.3333C19.9439 18.6038 20.3826 18.75 20.8333 18.75C21.2841 18.75 21.7227 18.6038 22.0833 18.3333L37.5 6.77083V27.0833C37.5 27.6359 37.2805 28.1658 36.8898 28.5565C36.4991 28.9472 35.9692 29.1667 35.4167 29.1667Z" fill="#2652CF"/>
</svg>
