<svg width="42" height="42" viewBox="0 0 42 42" fill="none" xmlns="http://www.w3.org/2000/svg">
<path fill-rule="evenodd" clip-rule="evenodd" d="M30.5995 41.5988C27.5995 41.4884 19.0974 40.3134 10.1932 31.4113C1.29113 22.5072 0.118212 14.0072 0.00571249 11.0051C-0.160954 6.43009 3.34321 1.98634 7.39113 0.250925C7.87858 0.0404396 8.41238 -0.0396987 8.94015 0.0183742C9.46792 0.0764471 9.97152 0.270736 10.4015 0.582175C13.7349 3.01134 16.0349 6.68634 18.0099 9.57593C18.4444 10.2108 18.6302 10.9833 18.5319 11.7463C18.4335 12.5094 18.0579 13.2095 17.4765 13.7134L13.412 16.7322C13.2156 16.874 13.0774 17.0822 13.023 17.3183C12.9685 17.5543 13.0017 17.802 13.1161 18.0155C14.037 19.6884 15.6745 22.1801 17.5495 24.0551C19.4265 25.9301 22.0349 27.6759 23.8245 28.7009C24.0488 28.8269 24.313 28.8621 24.5625 28.7993C24.812 28.7365 25.0281 28.5806 25.1661 28.3634L27.812 24.3363C28.2984 23.6902 29.016 23.2573 29.8144 23.1284C30.6129 22.9995 31.4302 23.1845 32.0953 23.6447C35.0265 25.6738 38.4474 27.9343 40.9515 31.1405C41.2883 31.5736 41.5025 32.0893 41.5717 32.6335C41.641 33.1777 41.5628 33.7306 41.3453 34.2343C39.6015 38.303 35.189 41.7676 30.5995 41.5988Z" fill="#2652CF"/>
</svg>
