<svg width="50" height="50" viewBox="0 0 50 50" fill="none" xmlns="http://www.w3.org/2000/svg">
<g id="mdi:train-car-flatbed-car">
<path id="Vector" d="M47.9163 27.0833V20.8333C47.9163 18.5208 46.0622 16.6666 43.7497 16.6666H39.583L33.333 8.33325H12.4997L6.24967 16.6666C3.93717 16.6666 2.08301 18.5208 2.08301 20.8333V27.0833H6.24967C6.24967 28.6874 6.87467 30.1458 7.87467 31.2499H2.08301V35.4166H4.16634C4.16634 36.5217 4.60533 37.5815 5.38673 38.3629C6.16813 39.1443 7.22794 39.5833 8.33301 39.5833C9.43808 39.5833 10.4979 39.1443 11.2793 38.3629C12.0607 37.5815 12.4997 36.5217 12.4997 35.4166H37.4997C37.4997 36.5217 37.9387 37.5815 38.7201 38.3629C39.5015 39.1443 40.5613 39.5833 41.6663 39.5833C42.7714 39.5833 43.8312 39.1443 44.6126 38.3629C45.394 37.5815 45.833 36.5217 45.833 35.4166H47.9163V31.2499H42.1247C43.1247 30.1458 43.7497 28.6874 43.7497 27.0833H47.9163ZM40.6247 27.0833C40.6247 28.8124 39.2288 30.2083 37.4997 30.2083C35.7705 30.2083 34.3747 28.8124 34.3747 27.0833C34.3747 25.3541 35.7705 23.9583 37.4997 23.9583C39.2288 23.9583 40.6247 25.3541 40.6247 27.0833ZM24.9997 11.4583H31.7705L35.708 16.6666H24.9997V11.4583ZM32.8747 31.2499H17.1247C18.1247 30.1458 18.7497 28.6874 18.7497 27.0833H31.2497C31.2497 28.6874 31.8747 30.1458 32.8747 31.2499ZM14.0622 11.4583H21.8747V16.6666H10.1247L14.0622 11.4583ZM12.4997 23.9583C14.2288 23.9583 15.6247 25.3541 15.6247 27.0833C15.6247 28.8124 14.2288 30.2083 12.4997 30.2083C10.7705 30.2083 9.37467 28.8124 9.37467 27.0833C9.37467 25.3541 10.7705 23.9583 12.4997 23.9583Z" fill="#2652CF"/>
</g>
</svg>
