<svg width="50" height="50" viewBox="0 0 50 50" fill="none" xmlns="http://www.w3.org/2000/svg">
<g id="mingcute:ship-fill" clip-path="url(#clip0_55_344)">
<g id="Group">
<path id="Vector" fill-rule="evenodd" clip-rule="evenodd" d="M29.6062 37.0334C30.6892 36.4919 31.8773 36.1929 33.0876 36.1573C34.2979 36.1217 35.5015 36.3503 36.6145 36.8271L37.0603 37.0354L42.5978 39.8021C43.0735 40.0396 43.4404 40.45 43.6233 40.9492C43.8063 41.4483 43.7914 41.9986 43.5819 42.4872C43.3723 42.9758 42.9839 43.3658 42.4961 43.5774C42.0084 43.7889 41.4582 43.8059 40.9583 43.625L40.7353 43.5292L35.1958 40.7604C34.6763 40.5007 34.1083 40.3525 33.5281 40.3252C32.948 40.2979 32.3686 40.3923 31.827 40.6021L31.4687 40.7604L28.727 42.1334C27.6435 42.6748 26.4551 42.9736 25.2443 43.0088C24.0336 43.0441 22.8297 42.815 21.7166 42.3375L21.2729 42.1334L18.5291 40.7604C18.0096 40.5007 17.4416 40.3525 16.8615 40.3252C16.2813 40.2979 15.7019 40.3923 15.1603 40.6021L14.802 40.7604L9.26451 43.5313C8.78879 43.7718 8.23895 43.8209 7.72815 43.6683C7.21735 43.5158 6.78447 43.1732 6.5186 42.7112C6.25274 42.2491 6.17411 41.7027 6.29892 41.1844C6.42372 40.6661 6.74245 40.2154 7.18951 39.925L7.40201 39.8021L12.9395 37.0334C14.0226 36.4919 15.2106 36.1929 16.4209 36.1573C17.6313 36.1217 18.8348 36.3503 19.9478 36.8271L20.3937 37.0354L23.1353 38.4063C23.6551 38.6663 24.2235 38.8147 24.804 38.842C25.3845 38.8692 25.9643 38.7748 26.5062 38.5646L26.8624 38.4063L29.6062 37.0334ZM27.0833 4.16669C27.6358 4.16669 28.1657 4.38618 28.5564 4.77688C28.9471 5.16758 29.1666 5.69749 29.1666 6.25002V9.00002L36.102 10.1542C37.0745 10.3169 37.9578 10.8192 38.5949 11.5718C39.2319 12.3244 39.5814 13.2786 39.5812 14.2646V21.4146L43.8728 22.8438C44.2146 22.9578 44.5291 23.1415 44.7962 23.3833C45.0634 23.6251 45.2774 23.9197 45.4249 24.2484C45.5723 24.5772 45.6499 24.933 45.6528 25.2933C45.6557 25.6536 45.5838 26.0106 45.4416 26.3417L40.9228 36.8834L37.0603 34.95C35.9031 34.3714 34.6271 34.0701 33.3333 34.0701C32.0394 34.0701 30.7634 34.3714 29.6062 34.95L26.8624 36.3229C26.2838 36.6123 25.6458 36.7629 24.9989 36.7629C24.352 36.7629 23.714 36.6123 23.1353 36.3229L20.3937 34.95C19.2365 34.3714 17.9604 34.0701 16.6666 34.0701C15.3728 34.0701 14.0967 34.3714 12.9395 34.95L10.2937 36.275L4.75618 26.5854C4.56503 26.2509 4.45049 25.8781 4.42082 25.494C4.39115 25.1099 4.44708 24.7239 4.58459 24.364C4.7221 24.0041 4.93775 23.6792 5.216 23.4127C5.49425 23.1462 5.82817 22.9448 6.19368 22.8229L10.4166 21.4146V14.2646C10.4164 13.2786 10.7659 12.3244 11.4029 11.5718C12.04 10.8192 12.9233 10.3169 13.8958 10.1542L20.8333 9.00002V6.25002C20.8333 5.69749 21.0528 5.16758 21.4435 4.77688C21.8342 4.38618 22.3641 4.16669 22.9166 4.16669H27.0833ZM24.9999 12.5292L14.5833 14.2646V20.0271L23.6812 16.9938C24.5365 16.7086 25.4613 16.7086 26.3166 16.9938L35.4166 20.0271V14.2646L24.9999 12.5292Z" fill="#2652CF"/>
</g>
</g>
<defs>
<clipPath id="clip0_55_344">
<rect width="50" height="50" fill="white"/>
</clipPath>
</defs>
</svg>
