<svg width="50" height="50" viewBox="0 0 50 50" fill="none" xmlns="http://www.w3.org/2000/svg">
<g id="subway:round-arrow-2" clip-path="url(#clip0_98_2426)">
<path id="Vector" d="M10.791 12.8711C14.2188 8.83789 19.2871 6.25 25 6.25C35.3613 6.25 43.75 14.6387 43.75 25H50C50 11.1914 38.8086 0 25 0C17.5586 0 10.9082 3.26172 6.33789 8.41797L0 2.08008V18.75H16.6699L10.791 12.8711ZM39.209 37.1289C35.7715 41.1621 30.7129 43.75 25 43.75C14.6387 43.75 6.25 35.3613 6.25 25H0C0 38.8086 11.1914 50 25 50C32.4414 50 39.0918 46.7383 43.6621 41.582L50 47.9199V31.25H33.3301L39.209 37.1289Z" fill="#2652CF"/>
</g>
<defs>
<clipPath id="clip0_98_2426">
<rect width="50" height="50" fill="white"/>
</clipPath>
</defs>
</svg>
