<svg width="50" height="50" viewBox="0 0 50 50" fill="none" xmlns="http://www.w3.org/2000/svg">
<g id="material-symbols:route-outline">
<path id="Vector" d="M18.75 43.75C16.4583 43.75 14.4965 42.934 12.8646 41.3021C11.2326 39.6701 10.4167 37.7083 10.4167 35.4167V18.3854C9.20139 17.934 8.20347 17.1792 7.42292 16.1208C6.64236 15.0625 6.25139 13.8556 6.25 12.5C6.25 10.7639 6.85764 9.28819 8.07292 8.07292C9.28819 6.85764 10.7639 6.25 12.5 6.25C14.2361 6.25 15.7118 6.85764 16.9271 8.07292C18.1424 9.28819 18.75 10.7639 18.75 12.5C18.75 13.8542 18.3597 15.0611 17.5792 16.1208C16.7986 17.1806 15.8 17.9354 14.5833 18.3854V35.4167C14.5833 36.5625 14.9917 37.5437 15.8083 38.3604C16.625 39.1771 17.6056 39.5847 18.75 39.5833C19.8958 39.5833 20.8771 39.1757 21.6937 38.3604C22.5104 37.5451 22.9181 36.5639 22.9167 35.4167V14.5833C22.9167 12.2917 23.7326 10.3299 25.3646 8.69792C26.9965 7.06597 28.9583 6.25 31.25 6.25C33.5417 6.25 35.5035 7.06597 37.1354 8.69792C38.7674 10.3299 39.5833 12.2917 39.5833 14.5833V31.6146C40.7986 32.066 41.7972 32.8215 42.5792 33.8813C43.3611 34.941 43.7514 36.1472 43.75 37.5C43.75 39.2361 43.1424 40.7118 41.9271 41.9271C40.7118 43.1424 39.2361 43.75 37.5 43.75C35.7639 43.75 34.2882 43.1424 33.0729 41.9271C31.8576 40.7118 31.25 39.2361 31.25 37.5C31.25 36.1458 31.641 34.9306 32.4229 33.8542C33.2049 32.7778 34.2028 32.0312 35.4167 31.6146V14.5833C35.4167 13.4375 35.009 12.4569 34.1937 11.6417C33.3785 10.8264 32.3972 10.4181 31.25 10.4167C30.1042 10.4167 29.1236 10.825 28.3083 11.6417C27.4931 12.4583 27.0847 13.4389 27.0833 14.5833V35.4167C27.0833 37.7083 26.2674 39.6701 24.6354 41.3021C23.0035 42.934 21.0417 43.75 18.75 43.75ZM12.5 14.5833C13.0903 14.5833 13.5854 14.3833 13.9854 13.9833C14.3854 13.5833 14.5847 13.0889 14.5833 12.5C14.5833 11.9097 14.3833 11.4153 13.9833 11.0167C13.5833 10.6181 13.0889 10.4181 12.5 10.4167C11.9097 10.4167 11.4153 10.6167 11.0167 11.0167C10.6181 11.4167 10.4181 11.9111 10.4167 12.5C10.4167 13.0903 10.6167 13.5854 11.0167 13.9854C11.4167 14.3854 11.9111 14.5847 12.5 14.5833ZM37.5 39.5833C38.0903 39.5833 38.5854 39.3833 38.9854 38.9833C39.3854 38.5833 39.5847 38.0889 39.5833 37.5C39.5833 36.9097 39.3833 36.4153 38.9833 36.0167C38.5833 35.6181 38.0889 35.4181 37.5 35.4167C36.9097 35.4167 36.4153 35.6167 36.0167 36.0167C35.6181 36.4167 35.4181 36.9111 35.4167 37.5C35.4167 38.0903 35.6167 38.5854 36.0167 38.9854C36.4167 39.3854 36.9111 39.5847 37.5 39.5833Z" fill="#2652CF"/>
</g>
</svg>
