<svg width="50" height="50" viewBox="0 0 50 50" fill="none" xmlns="http://www.w3.org/2000/svg">
<g id="material-symbols:manufacturing-rounded">
<path id="Vector" d="M11.5625 21.875C11.1458 21.7013 10.7556 21.5194 10.3917 21.3291C10.0278 21.1388 9.65416 20.9041 9.27083 20.625L7.76041 21.0937C7.30902 21.2326 6.86597 21.2152 6.43125 21.0416C5.99652 20.868 5.65833 20.5902 5.41666 20.2083L5 19.4791C4.75694 19.0625 4.67013 18.6111 4.73958 18.125C4.80902 17.6388 5.03472 17.2395 5.41666 16.927L6.5625 15.9375C6.49305 15.4861 6.45833 15.0347 6.45833 14.5833C6.45833 14.1319 6.49305 13.6805 6.5625 13.2291L5.41666 12.2395C5.03472 11.927 4.80902 11.5368 4.73958 11.0687C4.67013 10.6007 4.75694 10.1576 5 9.73954L5.46875 8.95829C5.7118 8.57635 6.04166 8.29857 6.45833 8.12496C6.87499 7.95135 7.30902 7.93399 7.76041 8.07288L9.27083 8.54163C9.65277 8.26385 10.0264 8.02982 10.3917 7.83954C10.7569 7.64926 11.1472 7.46663 11.5625 7.29163L11.875 5.78121C11.9792 5.2951 12.2139 4.90482 12.5792 4.61038C12.9444 4.31593 13.3694 4.16801 13.8542 4.16663H14.6875C15.1736 4.16663 15.5993 4.32288 15.9646 4.63538C16.3299 4.94788 16.5639 5.34718 16.6667 5.83329L16.9792 7.29163C17.3958 7.46524 17.7868 7.64788 18.1521 7.83954C18.5174 8.03121 18.8903 8.26524 19.2708 8.54163L20.7812 8.07288C21.2326 7.93399 21.6757 7.95135 22.1104 8.12496C22.5451 8.29857 22.8833 8.57635 23.125 8.95829L23.5417 9.68746C23.7847 10.1041 23.8715 10.5555 23.8021 11.0416C23.7326 11.5277 23.5069 11.927 23.125 12.2395L21.9792 13.2291C22.0486 13.6805 22.0833 14.1319 22.0833 14.5833C22.0833 15.0347 22.0486 15.4861 21.9792 15.9375L23.125 16.927C23.5069 17.2395 23.7326 17.6305 23.8021 18.1C23.8715 18.5694 23.7847 19.0118 23.5417 19.427L23.0729 20.2083C22.8299 20.5902 22.5 20.868 22.0833 21.0416C21.6667 21.2152 21.2326 21.2326 20.7812 21.0937L19.2708 20.625C18.8889 20.9027 18.516 21.1375 18.1521 21.3291C17.7882 21.5208 17.3972 21.7027 16.9792 21.875L16.6667 23.3854C16.5625 23.8715 16.3285 24.2625 15.9646 24.5583C15.6007 24.8541 15.175 25.0013 14.6875 25H13.8542C13.3681 25 12.9431 24.8437 12.5792 24.5312C12.2153 24.2187 11.9805 23.8194 11.875 23.3333L11.5625 21.875ZM14.2708 18.75C15.4167 18.75 16.3979 18.3423 17.2146 17.527C18.0312 16.7118 18.4389 15.7305 18.4375 14.5833C18.4375 13.4375 18.0299 12.4569 17.2146 11.6416C16.3993 10.8263 15.4181 10.418 14.2708 10.4166C13.125 10.4166 12.1444 10.825 11.3292 11.6416C10.5139 12.4583 10.1056 13.4388 10.1042 14.5833C10.1042 15.7291 10.5125 16.7104 11.3292 17.527C12.1458 18.3437 13.1264 18.7513 14.2708 18.75ZM29.8958 43.5416C29.3055 43.3333 28.759 43.0812 28.2562 42.7854C27.7535 42.4895 27.2583 42.1513 26.7708 41.7708L24.7917 42.3958C24.1667 42.6041 23.5417 42.5958 22.9167 42.3708C22.2917 42.1458 21.8055 41.7375 21.4583 41.1458L20.8854 40.1562C20.5382 39.5659 20.4167 38.9319 20.5208 38.2541C20.625 37.5763 20.9375 37.0125 21.4583 36.5625L23.0208 35.2083C22.9514 34.5833 22.9167 33.9583 22.9167 33.3333C22.9167 32.7083 22.9514 32.0833 23.0208 31.4583L21.4583 30.052C20.9375 29.6007 20.625 29.0451 20.5208 28.3854C20.4167 27.7257 20.5382 27.1007 20.8854 26.5104L21.4583 25.5208C21.8055 24.9305 22.2917 24.5222 22.9167 24.2958C23.5417 24.0694 24.1667 24.0611 24.7917 24.2708L26.7708 24.8958C27.2569 24.5138 27.7521 24.175 28.2562 23.8791C28.7604 23.5833 29.3069 23.3319 29.8958 23.125L30.3646 20.9895C30.5035 20.3298 30.825 19.7916 31.3292 19.375C31.8333 18.9583 32.4319 18.75 33.125 18.75H34.375C35.0694 18.75 35.6687 18.9583 36.1729 19.375C36.6771 19.7916 36.9979 20.3298 37.1354 20.9895L37.6042 23.125C38.1944 23.3333 38.7417 23.5854 39.2458 23.8812C39.75 24.177 40.2444 24.5152 40.7292 24.8958L42.7083 24.2708C43.3333 24.0625 43.9583 24.0715 44.5833 24.2979C45.2083 24.5243 45.6944 24.9319 46.0417 25.5208L46.6146 26.5104C46.9618 27.1007 47.0833 27.7347 46.9792 28.4125C46.875 29.0902 46.5625 29.6541 46.0417 30.1041L44.4792 31.4583C44.5486 32.0833 44.5833 32.7083 44.5833 33.3333C44.5833 33.9583 44.5486 34.5833 44.4792 35.2083L46.0417 36.6145C46.5625 37.0659 46.875 37.6215 46.9792 38.2812C47.0833 38.9409 46.9618 39.5659 46.6146 40.1562L46.0417 41.1458C45.6944 41.7361 45.2083 42.1444 44.5833 42.3708C43.9583 42.5972 43.3333 42.6055 42.7083 42.3958L40.7292 41.7708C40.243 42.1527 39.7486 42.4909 39.2458 42.7854C38.743 43.0798 38.1958 43.3319 37.6042 43.5416L37.1354 45.677C36.9965 46.3368 36.6757 46.875 36.1729 47.2916C35.6701 47.7083 35.0708 47.9166 34.375 47.9166H33.125C32.4305 47.9166 31.8319 47.7083 31.3292 47.2916C30.8264 46.875 30.5049 46.3368 30.3646 45.677L29.8958 43.5416ZM33.75 39.5833C35.4861 39.5833 36.9618 38.9757 38.1771 37.7604C39.3924 36.5451 40 35.0694 40 33.3333C40 31.5972 39.3924 30.1215 38.1771 28.9062C36.9618 27.6909 35.4861 27.0833 33.75 27.0833C32.0139 27.0833 30.5382 27.6909 29.3229 28.9062C28.1076 30.1215 27.5 31.5972 27.5 33.3333C27.5 35.0694 28.1076 36.5451 29.3229 37.7604C30.5382 38.9757 32.0139 39.5833 33.75 39.5833Z" fill="#2652CF"/>
</g>
</svg>
