<svg width="70" height="70" viewBox="0 0 70 70" fill="none" xmlns="http://www.w3.org/2000/svg">
<g id="material-symbols:check-circle">
<path id="Vector" d="M30.9167 48.4167L51.4792 27.8542L47.3959 23.7709L30.9167 40.25L22.6042 31.9375L18.5209 36.0209L30.9167 48.4167ZM35 64.1667C30.9653 64.1667 27.1737 63.4006 23.625 61.8684C20.0764 60.3362 16.9896 58.2585 14.3646 55.6355C11.7396 53.0105 9.66199 49.9237 8.13171 46.375C6.60143 42.8264 5.83532 39.0348 5.83337 35C5.83337 30.9653 6.59949 27.1737 8.13171 23.625C9.66393 20.0764 11.7416 16.9896 14.3646 14.3646C16.9896 11.7396 20.0764 9.66199 23.625 8.13171C27.1737 6.60143 30.9653 5.83532 35 5.83337C39.0348 5.83337 42.8264 6.59949 46.375 8.13171C49.9237 9.66393 53.0105 11.7416 55.6355 14.3646C58.2605 16.9896 60.3391 20.0764 61.8713 23.625C63.4035 27.1737 64.1687 30.9653 64.1667 35C64.1667 39.0348 63.4006 42.8264 61.8684 46.375C60.3362 49.9237 58.2585 53.0105 55.6355 55.6355C53.0105 58.2605 49.9237 60.3391 46.375 61.8713C42.8264 63.4035 39.0348 64.1687 35 64.1667Z" fill="#2652CF"/>
</g>
</svg>
