<svg width="70" height="70" viewBox="0 0 70 70" fill="none" xmlns="http://www.w3.org/2000/svg">
<g id="material-symbols:share">
<path id="Vector" d="M52.5 64.1667C50.0694 64.1667 48.0035 63.316 46.3021 61.6146C44.6007 59.9132 43.75 57.8473 43.75 55.4167C43.75 55.0764 43.7743 54.7235 43.8229 54.358C43.8715 53.9924 43.9444 53.6648 44.0417 53.375L23.4792 41.4167C22.6528 42.1459 21.7292 42.7175 20.7083 43.1317C19.6875 43.5459 18.6181 43.752 17.5 43.75C15.0694 43.75 13.0035 42.8993 11.3021 41.198C9.60069 39.4966 8.75 37.4306 8.75 35C8.75 32.5695 9.60069 30.5035 11.3021 28.8021C13.0035 27.1007 15.0694 26.25 17.5 26.25C18.6181 26.25 19.6875 26.4571 20.7083 26.8713C21.7292 27.2855 22.6528 27.8562 23.4792 28.5834L44.0417 16.625C43.9444 16.3334 43.8715 16.0057 43.8229 15.6421C43.7743 15.2785 43.75 14.9256 43.75 14.5834C43.75 12.1528 44.6007 10.0868 46.3021 8.38546C48.0035 6.68407 50.0694 5.83337 52.5 5.83337C54.9306 5.83337 56.9965 6.68407 58.6979 8.38546C60.3993 10.0868 61.25 12.1528 61.25 14.5834C61.25 17.0139 60.3993 19.0799 58.6979 20.7813C56.9965 22.4827 54.9306 23.3334 52.5 23.3334C51.3819 23.3334 50.3125 23.1273 49.2917 22.715C48.2708 22.3028 47.3472 21.7312 46.5208 21L25.9583 32.9584C26.0556 33.25 26.1285 33.5787 26.1771 33.9442C26.2257 34.3098 26.25 34.6617 26.25 35C26.25 35.3403 26.2257 35.6932 26.1771 36.0588C26.1285 36.4243 26.0556 36.752 25.9583 37.0417L46.5208 49C47.3472 48.2709 48.2708 47.7002 49.2917 47.288C50.3125 46.8757 51.3819 46.6687 52.5 46.6667C54.9306 46.6667 56.9965 47.5174 58.6979 49.2188C60.3993 50.9202 61.25 52.9862 61.25 55.4167C61.25 57.8473 60.3993 59.9132 58.6979 61.6146C56.9965 63.316 54.9306 64.1667 52.5 64.1667Z" fill="#2652CF"/>
</g>
</svg>
