<svg width="70" height="70" viewBox="0 0 70 70" fill="none" xmlns="http://www.w3.org/2000/svg">
<g id="material-symbols:manufacturing-rounded">
<path id="Vector" d="M16.1875 30.625C15.6042 30.382 15.0578 30.1273 14.5484 29.8609C14.0389 29.5945 13.5159 29.2659 12.9792 28.875L10.8646 29.5313C10.2327 29.7257 9.61238 29.7014 9.00377 29.4584C8.39516 29.2153 7.92168 28.8264 7.58335 28.2917L7.00002 27.2709C6.65974 26.6875 6.53821 26.0556 6.63543 25.375C6.73266 24.6945 7.04863 24.1355 7.58335 23.698L9.18752 22.3125C9.0903 21.6806 9.04168 21.0487 9.04168 20.4167C9.04168 19.7848 9.0903 19.1528 9.18752 18.5209L7.58335 17.1355C7.04863 16.698 6.73266 16.1516 6.63543 15.4963C6.53821 14.841 6.65974 14.2207 7.00002 13.6355L7.65627 12.5417C7.99655 12.007 8.45835 11.6181 9.04168 11.375C9.62502 11.132 10.2327 11.1077 10.8646 11.3021L12.9792 11.9584C13.5139 11.5695 14.037 11.2418 14.5484 10.9755C15.0597 10.7091 15.6061 10.4534 16.1875 10.2084L16.625 8.09379C16.7709 7.41324 17.0995 6.86685 17.6109 6.45462C18.1222 6.0424 18.7172 5.83532 19.3959 5.83337H20.5625C21.2431 5.83337 21.839 6.05212 22.3504 6.48962C22.8618 6.92712 23.1895 7.48615 23.3334 8.16671L23.7709 10.2084C24.3542 10.4514 24.9015 10.7071 25.4129 10.9755C25.9243 11.2438 26.4464 11.5714 26.9792 11.9584L29.0938 11.3021C29.7257 11.1077 30.346 11.132 30.9546 11.375C31.5632 11.6181 32.0367 12.007 32.375 12.5417L32.9584 13.5625C33.2986 14.1459 33.4202 14.7778 33.3229 15.4584C33.2257 16.1389 32.9097 16.698 32.375 17.1355L30.7709 18.5209C30.8681 19.1528 30.9167 19.7848 30.9167 20.4167C30.9167 21.0487 30.8681 21.6806 30.7709 22.3125L32.375 23.698C32.9097 24.1355 33.2257 24.6828 33.3229 25.34C33.4202 25.9973 33.2986 26.6166 32.9584 27.198L32.3021 28.2917C31.9618 28.8264 31.5 29.2153 30.9167 29.4584C30.3334 29.7014 29.7257 29.7257 29.0938 29.5313L26.9792 28.875C26.4445 29.2639 25.9224 29.5925 25.4129 29.8609C24.9035 30.1292 24.3561 30.3839 23.7709 30.625L23.3334 32.7396C23.1875 33.4202 22.8599 33.9675 22.3504 34.3817C21.841 34.7959 21.245 35.002 20.5625 35H19.3959C18.7153 35 18.1203 34.7813 17.6109 34.3438C17.1014 33.9063 16.7728 33.3473 16.625 32.6667L16.1875 30.625ZM19.9792 26.25C21.5834 26.25 22.9571 25.6793 24.1004 24.538C25.2438 23.3966 25.8145 22.0228 25.8125 20.4167C25.8125 18.8125 25.2418 17.4398 24.1004 16.2984C22.959 15.157 21.5853 14.5853 19.9792 14.5834C18.375 14.5834 17.0022 15.155 15.8609 16.2984C14.7195 17.4417 14.1478 18.8145 14.1459 20.4167C14.1459 22.0209 14.7175 23.3946 15.8609 24.538C17.0042 25.6813 18.377 26.252 19.9792 26.25ZM41.8542 60.9584C41.0278 60.6667 40.2627 60.3138 39.5588 59.8996C38.8549 59.4855 38.1617 59.012 37.4792 58.4792L34.7083 59.3542C33.8333 59.6459 32.9584 59.6342 32.0834 59.3192C31.2084 59.0042 30.5278 58.4325 30.0417 57.6042L29.2396 56.2188C28.7535 55.3924 28.5834 54.5048 28.7292 53.5559C28.875 52.607 29.3125 51.8175 30.0417 51.1875L32.2292 49.2917C32.132 48.4167 32.0834 47.5417 32.0834 46.6667C32.0834 45.7917 32.132 44.9167 32.2292 44.0417L30.0417 42.073C29.3125 41.441 28.875 40.6632 28.7292 39.7396C28.5834 38.816 28.7535 37.941 29.2396 37.1146L30.0417 35.7292C30.5278 34.9028 31.2084 34.3312 32.0834 34.0142C32.9584 33.6973 33.8333 33.6856 34.7083 33.9792L37.4792 34.8542C38.1597 34.3195 38.8529 33.845 39.5588 33.4309C40.2646 33.0167 41.0297 32.6648 41.8542 32.375L42.5104 29.3855C42.7049 28.4618 43.155 27.7084 43.8609 27.125C44.5667 26.5417 45.4047 26.25 46.375 26.25H48.125C49.0972 26.25 49.9363 26.5417 50.6421 27.125C51.3479 27.7084 51.7971 28.4618 51.9896 29.3855L52.6458 32.375C53.4722 32.6667 54.2383 33.0196 54.9442 33.4338C55.65 33.848 56.3422 34.3214 57.0209 34.8542L59.7917 33.9792C60.6667 33.6875 61.5417 33.7002 62.4167 34.0171C63.2917 34.3341 63.9722 34.9048 64.4584 35.7292L65.2604 37.1146C65.7465 37.941 65.9167 38.8287 65.7709 39.7775C65.625 40.7264 65.1875 41.5159 64.4584 42.1459L62.2709 44.0417C62.3681 44.9167 62.4167 45.7917 62.4167 46.6667C62.4167 47.5417 62.3681 48.4167 62.2709 49.2917L64.4584 51.2605C65.1875 51.8924 65.625 52.6702 65.7709 53.5938C65.9167 54.5174 65.7465 55.3924 65.2604 56.2188L64.4584 57.6042C63.9722 58.4306 63.2917 59.0023 62.4167 59.3192C61.5417 59.6362 60.6667 59.6478 59.7917 59.3542L57.0209 58.4792C56.3403 59.0139 55.6481 59.4874 54.9442 59.8996C54.2403 60.3119 53.4742 60.6648 52.6458 60.9584L51.9896 63.948C51.7952 64.8716 51.346 65.625 50.6421 66.2084C49.9382 66.7917 49.0992 67.0834 48.125 67.0834H46.375C45.4028 67.0834 44.5647 66.7917 43.8609 66.2084C43.157 65.625 42.7068 64.8716 42.5104 63.948L41.8542 60.9584ZM47.25 55.4167C49.6806 55.4167 51.7465 54.566 53.4479 52.8646C55.1493 51.1632 56 49.0973 56 46.6667C56 44.2362 55.1493 42.1702 53.4479 40.4688C51.7465 38.7674 49.6806 37.9167 47.25 37.9167C44.8195 37.9167 42.7535 38.7674 41.0521 40.4688C39.3507 42.1702 38.5 44.2362 38.5 46.6667C38.5 49.0973 39.3507 51.1632 41.0521 52.8646C42.7535 54.566 44.8195 55.4167 47.25 55.4167Z" fill="#2652CF"/>
</g>
</svg>
